<svg width="101" height="40" viewBox="0 0 101 40" fill="none" xmlns="http://www.w3.org/2000/svg">
<ellipse cx="81.2085" cy="20" rx="19.7905" ry="20" fill="white"/>
<ellipse cx="55.2778" cy="26.8961" rx="2.0473" ry="2.06897" fill="white"/>
<path fill-rule="evenodd" clip-rule="evenodd" d="M50.846 11.4827H46.167V21.5924L39.0974 11.3682H34.7695V28.9658H39.4599L39.4033 19.44L46.5295 29.1032H50.846V11.4827ZM10.2073 20.0465L16.9936 28.9656H11.1023L6.0494 21.8441H5.86812V28.9656H1.17773V11.4824H5.86812V18.7642H5.99275L10.7624 11.4824H16.1779L10.2073 20.0465ZM25.0607 29.4007C20.5515 29.4007 17.4473 26.4124 17.4473 22.096V11.4824H22.1377V22.1074C22.1377 23.8821 23.3499 25.1072 25.0607 25.1072C26.7827 25.1072 27.995 23.8821 27.995 22.1189V11.4824H32.6854V22.096C32.6854 26.4124 29.5811 29.4007 25.0607 29.4007Z" fill="white"/>
<path fill-rule="evenodd" clip-rule="evenodd" d="M66.5099 22.0959C66.5099 26.4123 69.6142 29.4006 74.1233 29.4006C78.6438 29.4006 81.748 26.4123 81.748 22.0959V11.4824H77.0577V22.1188C77.0577 23.882 75.8454 25.1071 74.1233 25.1071C72.4126 25.1071 71.2003 23.882 71.2003 22.1074V11.4824H66.5099V22.0959ZM90.0081 15.6958L82.7912 28.9656H97.1909V24.7407H90.5179L97.7008 11.4824H84.1507V15.6958H90.0081Z" fill="#0B0B0B"/>
</svg>
